<?xml version="1.0" encoding="utf-8"?>
<!-- Generator: Adobe Illustrator 24.1.3, SVG Export Plug-In . SVG Version: 6.00 Build 0)  -->
<svg version="1.1" id="Layer_1" xmlns="http://www.w3.org/2000/svg" xmlns:xlink="http://www.w3.org/1999/xlink" x="0px" y="0px"
	 viewBox="0 0 246.9 65.1" enable-background="new 0 0 246.9 65.1" xml:space="preserve">
<rect x="0" fill="#44515C" width="246.9" height="65.1"/>
<g>
	<path fill="#FFFFFF" d="M38.1,21.4v15.8c0,2.2-0.4,3.8-1.2,4.8c-0.8,1-2.1,1.5-4,1.5c-1.8,0-3.1-0.5-3.9-1.5
		c-0.8-1-1.3-2.5-1.3-4.5v-0.5h1.9v0.6c0,1.5,0.3,2.6,0.8,3.3c0.5,0.7,1.4,1,2.5,1c1.1,0,1.9-0.3,2.4-1s0.8-1.9,0.8-3.7V21.4H38.1z"
		/>
	<path fill="#FFFFFF" d="M53,27.3v-0.5c0-1.3-0.3-2.4-0.9-3.1c-0.6-0.7-1.5-1.1-2.7-1.1c-1.4,0-2.5,0.5-3.2,1.6
		c-0.7,1-1.1,3-1.1,5.8v6.2c0,1.8,0.4,3.2,1.1,4.3c0.7,1,1.7,1.5,3.1,1.5c1.3,0,2.3-0.4,2.9-1.3c0.6-0.9,1-2.1,1-3.7h2v0.1
		c0,2.1-0.5,3.7-1.5,4.9c-1,1.1-2.5,1.7-4.5,1.7c-2,0-3.5-0.6-4.5-1.8s-1.5-3.5-1.5-6.8v-3.2l0.1-2.4c0.1-2.4,0.3-4.1,0.8-5.2
		c0.5-1,1.1-1.8,2-2.4c0.9-0.6,2-0.8,3.4-0.8c1.8,0,3.2,0.5,4.2,1.5c0.9,1,1.4,2.5,1.4,4.5v0.4H53z"/>
	<path fill="#FFFFFF" d="M73.7,21.4c2,0,3.6,0.7,4.6,2c1.1,1.3,1.6,3.5,1.6,6.5v3.7c0,3.7-0.6,6.2-1.8,7.6c-1.2,1.3-3.1,2-5.6,2
		h-5.1V21.4H73.7z M71.8,41.6c1.9,0,3.2-0.3,4-0.8c0.8-0.6,1.4-1.4,1.7-2.6c0.3-1.2,0.4-3,0.4-5.4v-2.2c0-1.7-0.1-3.1-0.3-4.1
		c-0.2-1-0.7-1.8-1.4-2.5c-0.7-0.7-2.1-1-4.1-1h-2.8v18.5H71.8z"/>
	<path fill="#FFFFFF" d="M94.7,34.6v1.4h-8.6v1.2c0,1.7,0.3,2.9,0.8,3.8c0.5,0.8,1.4,1.2,2.6,1.2c1,0,1.8-0.3,2.4-0.9
		c0.6-0.6,0.9-1.5,0.9-2.6h1.9c0,1.6-0.4,2.8-1.3,3.7c-0.9,0.9-2.1,1.3-3.8,1.3c-1.9,0-3.3-0.6-4.1-1.7c-0.8-1.1-1.3-3.3-1.3-6.4
		c0-2.8,0.4-4.8,1.3-6c0.9-1.2,2.2-1.8,4.1-1.8c1.7,0,2.9,0.5,3.8,1.4C94.3,30.1,94.7,31.9,94.7,34.6z M92.9,34.6v-0.3
		c0-1.9-0.3-3.3-0.8-4c-0.5-0.7-1.4-1.1-2.6-1.1c-1.1,0-2,0.4-2.5,1.1s-0.8,1.9-0.8,3.5v0.8H92.9z"/>
	<path fill="#FFFFFF" d="M99.5,28l3.6,13l3.7-13h1.7l-4.5,15.3H102L97.5,28H99.5z"/>
	<path fill="#FFFFFF" d="M121.8,34.6v1.4h-8.6v1.2c0,1.7,0.3,2.9,0.8,3.8c0.5,0.8,1.4,1.2,2.6,1.2c1,0,1.8-0.3,2.4-0.9
		c0.6-0.6,0.9-1.5,0.9-2.6h1.9c0,1.6-0.4,2.8-1.3,3.7c-0.9,0.9-2.1,1.3-3.8,1.3c-1.9,0-3.3-0.6-4.1-1.7c-0.8-1.1-1.3-3.3-1.3-6.4
		c0-2.8,0.4-4.8,1.3-6c0.9-1.2,2.2-1.8,4.1-1.8c1.7,0,2.9,0.5,3.8,1.4C121.4,30.1,121.8,31.9,121.8,34.6z M120,34.6v-0.3
		c0-1.9-0.3-3.3-0.8-4c-0.5-0.7-1.4-1.1-2.6-1.1c-1.1,0-2,0.4-2.5,1.1s-0.8,1.9-0.8,3.5v0.8H120z"/>
	<path fill="#FFFFFF" d="M126.7,21.4h1.8v21.8h-1.8V21.4z"/>
	<path fill="#FFFFFF" d="M143.9,33.9v3.3c0,2.3-0.4,3.9-1.3,4.9s-2.2,1.5-4.1,1.5c-1.8,0-3.1-0.5-3.9-1.5s-1.2-2.6-1.2-4.7v-3.2
		c0-2.2,0.4-3.9,1.3-4.9c0.8-1.1,2.2-1.6,4.1-1.6c1.8,0,3.1,0.5,3.9,1.4S143.9,31.7,143.9,33.9z M142,34.1c0-1.8-0.3-3-0.8-3.8
		c-0.5-0.8-1.4-1.1-2.5-1.1c-1.2,0-2.1,0.4-2.6,1.2s-0.9,2.2-0.9,4.3v2.1c0,2.2,0.3,3.6,0.9,4.3c0.6,0.7,1.5,1.1,2.6,1.1
		c1.1,0,1.9-0.4,2.5-1.2c0.5-0.8,0.8-2.2,0.8-4.3V34.1z"/>
	<path fill="#FFFFFF" d="M157.1,42c-0.8,1.1-2,1.7-3.6,1.7c-0.8,0-1.5-0.2-2-0.5c-0.5-0.3-1.1-0.9-1.6-1.6v7.6h-1.8V28h1.7v2
		c0.4-0.7,1-1.3,1.6-1.6c0.7-0.4,1.5-0.6,2.4-0.6c1.4,0,2.5,0.5,3.3,1.5c0.8,1,1.2,2.9,1.2,5.7v1.3C158.4,39,158,40.8,157.1,42z
		 M155.7,40.9c0.5-0.8,0.7-2.2,0.7-4.1v-2.3c0-2-0.2-3.3-0.7-4.1c-0.5-0.8-1.3-1.1-2.4-1.1c-1.1,0-2,0.5-2.6,1.6
		c-0.6,1-0.9,2.8-0.9,5.3c0,2.1,0.3,3.6,0.9,4.6c0.6,1,1.5,1.5,2.6,1.5C154.4,42.1,155.2,41.7,155.7,40.9z"/>
	<path fill="#FFFFFF" d="M171.3,30.1c0.4-0.8,0.9-1.4,1.5-1.8c0.6-0.4,1.3-0.5,2.2-0.5c1.2,0,2.2,0.4,2.9,1.2c0.7,0.8,1,1.9,1,3.3
		v10.9H177V32.3c0-1-0.2-1.7-0.6-2.2c-0.4-0.5-0.9-0.8-1.7-0.8c-0.9,0-1.6,0.4-2.2,1.1c-0.6,0.8-0.9,1.7-0.9,2.9v9.8h-1.9V32.4
		c0-1.1-0.2-1.9-0.6-2.4c-0.4-0.5-1-0.7-1.8-0.7c-0.9,0-1.7,0.4-2.2,1.1s-0.8,1.6-0.8,2.7v10.1h-1.9V28h1.6v2.1
		c0.5-0.8,1-1.4,1.6-1.8c0.6-0.4,1.3-0.6,2-0.6c0.9,0,1.6,0.2,2.2,0.6C170.6,28.7,171,29.3,171.3,30.1z"/>
	<path fill="#FFFFFF" d="M193.6,34.6v1.4H185v1.2c0,1.7,0.3,2.9,0.8,3.8c0.5,0.8,1.4,1.2,2.6,1.2c1,0,1.8-0.3,2.4-0.9
		c0.6-0.6,0.9-1.5,0.9-2.6h1.9c0,1.6-0.4,2.8-1.3,3.7c-0.9,0.9-2.1,1.3-3.8,1.3c-1.9,0-3.3-0.6-4.1-1.7c-0.8-1.1-1.3-3.3-1.3-6.4
		c0-2.8,0.4-4.8,1.3-6s2.2-1.8,4.1-1.8c1.7,0,2.9,0.5,3.8,1.4C193.2,30.1,193.6,31.9,193.6,34.6z M191.8,34.6v-0.3
		c0-1.9-0.3-3.3-0.8-4c-0.5-0.7-1.4-1.1-2.6-1.1c-1.1,0-2,0.4-2.5,1.1c-0.5,0.7-0.8,1.9-0.8,3.5v0.8H191.8z"/>
	<path fill="#FFFFFF" d="M207.6,32.7v10.6h-1.8V32.8c0-1-0.2-1.9-0.6-2.5c-0.4-0.6-1.1-1-2-1c-1.1,0-2,0.5-2.6,1.4
		c-0.6,0.9-0.9,2.2-0.9,3.8v8.7H198V28h1.6v2.1c0.8-1.5,2.1-2.3,3.9-2.3C206.2,27.8,207.6,29.4,207.6,32.7z"/>
	<path fill="#FFFFFF" d="M215.1,28h3.1v1.5h-3.1v10.4c0,0.7,0.1,1.3,0.4,1.5c0.3,0.3,0.7,0.4,1.5,0.4c0.1,0,0.3,0,0.5,0
		c0.2,0,0.4-0.1,0.7-0.1v1.6c-0.2,0-0.4,0.1-0.6,0.1s-0.5,0-0.9,0c-1.2,0-2.1-0.3-2.5-0.8c-0.5-0.5-0.7-1.1-0.7-1.9V29.5h-2.5V28
		h2.5v-3.1l1.8-0.8V28z"/>
</g>
</svg>
