<svg xmlns="http://www.w3.org/2000/svg" viewBox="0 0 213.6 65.06"><title>logo</title><rect width="213.6" height="65.06" fill="#000"/><path d="M190.62,23.34l-1.77.78v3.12h-2.46v1.44h2.46V39.87a2.61,2.61,0,0,0,.7,1.86,3.43,3.43,0,0,0,2.54.75l.94,0a3.34,3.34,0,0,0,.65-.06V40.8l-.69.09-.51,0A2,2,0,0,1,191,40.5a2.27,2.27,0,0,1-.39-1.53V28.68h3.06V27.24h-3.06Zm-10.51,3.72a4.1,4.1,0,0,0-3.87,2.28v-2.1h-1.65V42.39h1.77V33.75a7.18,7.18,0,0,1,.86-3.75,2.8,2.8,0,0,1,2.56-1.41,2.27,2.27,0,0,1,2,.94,4.41,4.41,0,0,1,.63,2.48V42.39h1.8V31.86q0-4.8-4.14-4.8m-17,6.69V33a5.93,5.93,0,0,1,.83-3.51,2.94,2.94,0,0,1,2.53-1.11A3,3,0,0,1,169,29.44a7,7,0,0,1,.82,4v.33Zm7.28-5.4a4.93,4.93,0,0,0-3.8-1.41,4.74,4.74,0,0,0-4.14,1.8q-1.29,1.8-1.29,6,0,4.68,1.28,6.36a4.87,4.87,0,0,0,4.15,1.68,5.23,5.23,0,0,0,3.8-1.28,4.89,4.89,0,0,0,1.3-3.67h-1.86a3.58,3.58,0,0,1-.85,2.59,3.18,3.18,0,0,1-2.39.89,3,3,0,0,1-2.65-1.23,6.81,6.81,0,0,1-.83-3.75V35.13h8.58V33.75q0-4-1.3-5.4m-21-.78a4.11,4.11,0,0,0-2.21-.57,3.75,3.75,0,0,0-2,.55,4.78,4.78,0,0,0-1.61,1.76V27.24h-1.62V42.39h1.86V32.31a4.29,4.29,0,0,1,.81-2.7,2.65,2.65,0,0,1,2.22-1.05,2.12,2.12,0,0,1,1.77.72,3.85,3.85,0,0,1,.57,2.37V42.39H151V32.61a4.66,4.66,0,0,1,.87-2.93,2.68,2.68,0,0,1,2.22-1.12,2,2,0,0,1,1.73.76,3.74,3.74,0,0,1,.55,2.21V42.39h1.89V31.53a4.94,4.94,0,0,0-1-3.32A3.59,3.59,0,0,0,154.37,27a4.09,4.09,0,0,0-2.19.54,4.57,4.57,0,0,0-1.53,1.74,3.12,3.12,0,0,0-1.3-1.74M134,41.28a2.92,2.92,0,0,1-2.64-1.46,8.86,8.86,0,0,1-.9-4.54,11.16,11.16,0,0,1,.9-5.25A2.83,2.83,0,0,1,134,28.47a2.63,2.63,0,0,1,2.44,1.14,8.34,8.34,0,0,1,.71,4.08V36a8.23,8.23,0,0,1-.75,4.08A2.54,2.54,0,0,1,134,41.28m5-5.82V34.2q0-4.14-1.17-5.67A3.94,3.94,0,0,0,134.53,27a4.64,4.64,0,0,0-2.4.58,4.88,4.88,0,0,0-1.65,1.64v-2h-1.74V48.15h1.8v-7.5a5,5,0,0,0,1.57,1.62,4.05,4.05,0,0,0,2.06.48,4.24,4.24,0,0,0,3.61-1.65Q139,39.45,139,35.46M124,36a7.9,7.9,0,0,1-.81,4.23,2.82,2.82,0,0,1-2.49,1.17,3.2,3.2,0,0,1-2.65-1.1c-.59-.73-.89-2.16-.89-4.3V33.84a7.63,7.63,0,0,1,.87-4.25,3,3,0,0,1,2.64-1.21,2.88,2.88,0,0,1,2.54,1.14,6.75,6.75,0,0,1,.79,3.75Zm.66-7.62a4.85,4.85,0,0,0-3.93-1.41,5,5,0,0,0-4.14,1.57,7.82,7.82,0,0,0-1.26,4.91V36.6a7.3,7.3,0,0,0,1.23,4.71,4.81,4.81,0,0,0,3.9,1.47,5.1,5.1,0,0,0,4.08-1.5q1.29-1.5,1.29-4.89V33.12q0-3.36-1.17-4.77m-14.38,14H112V20.73h-1.77ZM98.43,33.75V33a5.93,5.93,0,0,1,.83-3.51,2.94,2.94,0,0,1,2.53-1.11,3,3,0,0,1,2.57,1.09,7,7,0,0,1,.82,4v.33Zm7.28-5.4a4.93,4.93,0,0,0-3.8-1.41,4.74,4.74,0,0,0-4.14,1.8q-1.29,1.8-1.29,6,0,4.68,1.28,6.36a4.87,4.87,0,0,0,4.15,1.68,5.23,5.23,0,0,0,3.8-1.28A4.89,4.89,0,0,0,107,37.8h-1.86a3.58,3.58,0,0,1-.85,2.59,3.18,3.18,0,0,1-2.39.89,3,3,0,0,1-2.65-1.23,6.81,6.81,0,0,1-.83-3.75V35.13H107V33.75q0-4-1.3-5.4M84,27.24l4.5,15.15h2.07L95,27.24H93.28L89.59,40.17,85.93,27.24ZM73.84,33.75V33a5.94,5.94,0,0,1,.82-3.51,3.51,3.51,0,0,1,5.1,0,6.94,6.94,0,0,1,.83,4v.33Zm7.27-5.4a4.9,4.9,0,0,0-3.79-1.41,4.74,4.74,0,0,0-4.14,1.8q-1.29,1.8-1.29,6,0,4.68,1.27,6.36a4.89,4.89,0,0,0,4.16,1.68,5.2,5.2,0,0,0,3.79-1.28,4.9,4.9,0,0,0,1.31-3.67H80.56a3.58,3.58,0,0,1-.86,2.59,3.15,3.15,0,0,1-2.38.89,3,3,0,0,1-2.66-1.23,6.82,6.82,0,0,1-.82-3.75V35.13h8.58V33.75q0-4-1.31-5.4M58.23,40.77V22.35H61c2,0,3.42.33,4.13,1a4.66,4.66,0,0,1,1.38,2.46,21.37,21.37,0,0,1,.34,4V32a23.91,23.91,0,0,1-.43,5.35,4.12,4.12,0,0,1-1.68,2.55,7.55,7.55,0,0,1-4,.83Zm-1.92-20V42.39h5.13q3.78,0,5.6-2t1.81-7.5V29.22q0-4.47-1.6-6.48a5.63,5.63,0,0,0-4.67-2ZM46,26.58v-.39a6.13,6.13,0,0,0-1.41-4.44,5.58,5.58,0,0,0-4.17-1.44,6.46,6.46,0,0,0-3.4.82A5.14,5.14,0,0,0,35,23.52a15,15,0,0,0-.81,5.13l-.06,2.43v3.15q0,5,1.53,6.79a5.64,5.64,0,0,0,4.53,1.79,5.8,5.8,0,0,0,4.49-1.68,6.89,6.89,0,0,0,1.54-4.83v-.12h-2a6.12,6.12,0,0,1-1,3.66,3.39,3.39,0,0,1-2.94,1.32,3.53,3.53,0,0,1-3.06-1.53,7.23,7.23,0,0,1-1.08-4.23V29.22q0-4.17,1.08-5.73a3.68,3.68,0,0,1,3.24-1.56A3.39,3.39,0,0,1,43.13,23,4.6,4.6,0,0,1,44,26.07v.51ZM28.53,20.73V36.48a6,6,0,0,1-.82,3.64,3,3,0,0,1-2.45,1,3,3,0,0,1-2.53-1,5.25,5.25,0,0,1-.83-3.28v-.57H20v.54a6.75,6.75,0,0,0,1.28,4.47,4.88,4.88,0,0,0,3.94,1.5c1.9,0,3.25-.51,4-1.52a7.82,7.82,0,0,0,1.18-4.81V20.73Z" fill="#fff"/></svg>
